<svg xmlns="http://www.w3.org/2000/svg" xmlns:xlink="http://www.w3.org/1999/xlink" width="269px" height="58px" viewBox="0 0 269 58" version="1.1">
    <!-- Generator: Sketch 49.2 (51160) - http://www.bohemiancoding.com/sketch -->
    <title>smashgg-white</title>
    <desc>Created with Sketch.</desc>
    <defs/>
    <g id="DEV" stroke="none" stroke-width="1" fill="none" fill-rule="evenodd">
        <g id="Desktop" transform="translate(-491.000000, -116.000000)" fill="#FFFFFF">
            <g id="Content" transform="translate(450.000000, 116.000000)">
                <path d="M193.311741,0.00617953899 C197.374279,-0.00503517992 201.436818,0.00244129935 205.499356,0.00244129935 C205.48442,5.39672109 205.521759,10.7947391 205.480686,16.1927572 C205.816742,14.5666229 207.104955,13.2545008 208.63214,12.6825501 C210.271345,12.02462 212.074843,12.211532 213.803662,12.2003172 C216.331546,12.2526526 219.076,12.9554416 220.760012,14.974091 C222.186381,16.6862048 222.593382,18.9889604 222.585914,21.1608776 C222.578446,30.0728409 222.585914,38.9848042 222.58218,47.9005058 C218.515908,47.8930293 214.453369,47.904244 210.390831,47.8930293 C210.394565,39.4857283 210.424437,31.0746892 210.379629,22.6711265 C210.46551,21.6917077 209.498417,21.0711599 208.609737,21.1646159 C207.429808,21.0300393 205.674851,21.1309717 205.551631,22.6673882 C205.424677,31.0746892 205.536695,39.4932048 205.495622,47.904244 C201.440551,47.8930293 197.381747,47.889291 193.326677,47.9079822 C193.296805,31.9382225 193.330411,15.972201 193.311741,0.00617953899 M42.1800908,16.1105159 C43.8043593,13.3217891 47.2134562,12.3311556 50.245424,12.2152702 C53.2400524,12.1778878 56.2346808,12.196579 59.2293092,12.2040555 C62.2724789,12.290035 65.7002455,13.1909507 67.4253307,15.9236039 C69.0122597,18.3497214 68.6724702,21.3552661 68.6986079,24.1066105 C64.8265011,24.1178252 60.9506604,24.1066105 57.0748197,24.114087 C56.89559,22.8842061 57.5863709,21.1608776 56.4064425,20.3160355 C55.3310647,19.9870704 53.6246493,19.7478231 52.9786759,20.9216303 C52.6911617,22.2187995 52.8405197,23.5795187 52.8554555,24.8991173 C52.8106481,25.7402212 53.5574382,26.3420778 54.3602376,26.3271248 C57.9896376,26.5065603 61.8430746,25.8673213 65.2484375,27.4747644 C67.6867073,28.592498 69.064535,31.2466482 69.2250949,33.8447247 C69.3333795,36.2297216 69.4005906,38.6334097 69.1354801,41.0109301 C68.8330301,43.4706918 67.2759727,45.7584944 64.987061,46.7678191 C61.3128536,48.4687182 57.1756363,47.7397615 53.269924,47.8967675 C49.7786802,48.0051765 45.7572154,47.8033115 43.1994593,45.0818731 C40.955355,42.6594938 41.179392,39.1418103 41.2055296,36.0764538 C45.1560494,36.0652391 49.1065691,36.0876685 53.0570888,36.0652391 C53.0832265,37.0670873 52.971208,38.0838885 53.1541715,39.0819985 C53.5425024,40.1922556 54.931532,40.0165584 55.8650197,39.9941289 C56.6155437,40.0128201 57.4071413,39.5343255 57.4183431,38.715651 C57.4594166,37.4820319 57.5340956,36.2297216 57.354866,35.0073173 C57.1121592,34.0353749 55.9284968,34.020422 55.1256975,34.0166837 C51.4888296,33.9606102 47.4972364,34.4690107 44.2860389,32.3718583 C41.9112463,30.8915154 40.9441531,27.9644738 41.0150982,25.284156 C41.1345846,22.2187995 40.5259506,18.8805515 42.1800908,16.1105159 M74.7625436,12.196579 C78.7466689,12.196579 82.7307942,12.196579 86.7149195,12.196579 C86.7037176,13.6769219 86.7298553,15.1535265 86.6999837,16.6338694 C87.1480577,14.2526108 89.2540059,12.4582558 91.6512022,12.275082 C94.2500318,12.1218142 96.9870176,12.0059288 99.4402231,13.0302064 C101.07196,13.6843984 102.434851,14.9666146 103.177908,16.5628429 C104.006845,13.9871958 106.624344,12.4096587 109.230642,12.2302231 C112.210334,12.1143377 115.488743,12.0320964 118.046499,13.833928 C120.275667,15.362868 121.10087,18.1852389 121.104604,20.7721007 C121.115806,29.8223789 121.115806,38.8689188 121.104604,47.919197 C117.049534,47.8743381 112.994464,47.8967675 108.939393,47.9079822 C108.909522,39.6128285 108.943127,31.3176747 108.924458,23.022521 C109.017806,22.2187995 108.603338,21.2879778 107.710924,21.2169512 C106.863317,21.13471 105.985838,21.0861128 105.153168,21.2767631 C104.264487,21.5347016 103.988175,22.5515028 104.032982,23.3739155 C104.025514,31.5494456 104.032982,39.7249757 104.025514,47.9005058 C99.9667101,47.8930293 95.9079058,47.9005058 91.8491015,47.8967675 C91.8453676,39.6090902 91.8528355,31.321413 91.8453676,23.0374739 C91.9387164,22.2225377 91.5242478,21.2991925 90.6318336,21.213213 C89.3025472,21.0487305 87.0995164,20.9104156 86.9874979,22.7608442 C86.8904152,31.1382392 86.976296,39.5231107 86.9464244,47.9005058 C82.8838862,47.8930293 78.8250819,47.8930293 74.7662776,47.9005058 C74.7588097,36.001689 74.7662776,24.099134 74.7625436,12.196579 M128.116964,13.9311222 C130.745665,11.9947141 134.192101,12.103123 137.295014,12.2451761 C139.69221,12.3647998 142.052067,14.0395311 142.41426,16.517984 C142.492673,15.0787618 142.507609,13.6358013 142.485206,12.196579 C146.484267,12.196579 150.483328,12.196579 154.486123,12.196579 C154.486123,24.0953958 154.478655,35.9942125 154.486123,47.8930293 C150.412383,47.9005058 146.334909,47.8930293 142.257435,47.9005058 C142.257435,46.6781014 142.238765,45.455697 142.276104,44.2370309 C141.510644,46.3528745 139.423366,47.7397615 137.209133,47.8593851 C134.10622,47.9864853 130.644848,48.091156 128.042285,46.1024125 C125.887795,44.4912312 125.174611,41.665122 125.182078,39.0932132 C125.167143,32.9998826 125.159675,26.906552 125.185812,20.8132214 C125.197014,18.2674802 125.969942,15.4937064 128.116964,13.9311222 M138.157557,21.3477896 C137.616134,21.5459163 137.384629,22.1440347 137.407033,22.6823412 C137.388363,27.4149526 137.414501,32.1550404 137.395831,36.89139 C137.384629,37.5418437 137.380895,38.3941624 138.086612,38.715651 C138.993962,39.059569 140.009596,38.9436836 140.961754,38.8689188 C141.880306,38.6969598 142.320912,37.7138027 142.253701,36.8577459 C142.231297,32.1288727 142.30971,27.3962614 142.216361,22.6711265 C141.962452,20.7534095 139.520449,21.0150863 138.157557,21.3477896 M160.800233,15.9946305 C162.487979,13.2320714 165.919479,12.3049879 168.962649,12.2077937 C171.964745,12.1928408 174.970576,12.181626 177.976406,12.211532 C180.989704,12.3236791 184.372663,13.2769302 186.034271,16.0133217 C187.565191,18.4319627 187.217934,21.3889103 187.251539,24.1103487 C183.375698,24.1103487 179.499858,24.1103487 175.624017,24.1103487 C175.433586,22.8617767 176.202779,20.9739657 174.817484,20.2524854 C173.712234,19.9833322 171.800452,19.762776 171.445726,21.2057365 C171.333708,22.5141204 171.333708,23.8411955 171.438258,25.1533176 C171.479332,25.8561066 172.158911,26.2934807 172.81982,26.3159101 C176.497761,26.5252515 180.422144,25.8374154 183.864846,27.5121468 C186.545823,28.7607188 187.834035,31.8260753 187.826568,34.659661 C187.822834,37.1979257 188.080476,39.7997405 187.404631,42.2781933 C186.799731,44.487493 185.044774,46.2706333 182.905221,47.0407106 C179.413977,48.3677857 175.616549,47.7584527 171.975947,47.8967675 C168.469768,47.9977 164.422165,47.8556469 161.819602,45.1528996 C159.508286,42.7379968 159.728589,39.167978 159.758461,36.0764538 C163.708981,36.0727155 167.663234,36.0727155 171.617488,36.0764538 C171.710837,37.2054022 171.333708,38.4801419 171.938608,39.5081578 C172.842224,40.2632822 174.22752,40.0688937 175.295429,39.8034787 C176.30733,39.2016221 175.926467,37.8521176 176.012348,36.8839136 C175.982476,35.908233 176.240119,34.3867695 174.944438,34.1250927 C171.038726,33.7325775 166.778288,34.6933051 163.204897,32.5998909 C160.613536,31.1980511 159.474681,28.1177416 159.56803,25.2953707 C159.687516,22.1888935 159.063946,18.7833572 160.800233,15.9946305 M248.689962,13.8227132 C251.370939,11.9610699 254.809907,12.0993848 257.920288,12.2676055 C260.291347,12.4283499 262.363689,14.1479401 262.927516,16.4656487 C262.890176,15.0413794 262.91258,13.6208483 262.908846,12.196579 C266.907907,12.196579 270.906968,12.196579 274.906029,12.196579 C274.902295,24.0355839 274.902295,35.8708506 274.906029,47.7098555 C274.962039,50.2555967 274.416882,53.0555382 272.408016,54.8012961 C269.980949,56.9320927 266.553182,57.1975077 263.468939,57.1526489 C258.069646,57.1451724 252.670354,57.1526489 247.274795,57.1489106 C247.267327,54.2667279 247.278529,51.3882833 247.267327,48.5098388 C251.804077,48.4911476 256.344561,48.5098388 260.881311,48.5023623 C261.646771,48.5883419 262.632534,48.169659 262.651204,47.2874345 C262.722149,45.5715825 262.658671,43.8557305 262.654937,42.1436167 C261.896946,44.285628 259.749924,45.6052266 257.539425,45.7173738 C254.417842,45.8968093 250.907929,45.8893328 248.327769,43.8519922 C246.247959,42.2071668 245.594517,39.4147018 245.601985,36.8801753 C245.590783,31.5158014 245.572114,26.1514276 245.609453,20.7907919 C245.613187,18.1889771 246.449592,15.3553915 248.689962,13.8227132 M258.435573,21.4225544 C257.714921,21.8075931 257.823205,22.7384148 257.812004,23.4299891 C257.860545,27.5383145 257.755994,31.6503781 257.864279,35.7587034 C258.245142,37.0558726 259.86941,36.7680281 260.903715,36.7717664 C261.88201,36.8390547 262.699745,35.9717831 262.658671,35.0110555 C262.692277,31.0186156 262.677341,27.0224374 262.666139,23.0299975 C262.703479,22.1888935 262.14712,21.2879778 261.25844,21.2094748 C260.324952,21.1608776 259.305584,21.0038716 258.435573,21.4225544 M283.397033,13.833928 C286.089211,11.9535934 289.554318,12.0956465 292.679634,12.2713438 C295.043225,12.447041 297.134237,14.1741078 297.642055,16.5105075 C297.619651,15.0712853 297.642055,13.6358013 297.634587,12.196579 C301.629914,12.196579 305.628975,12.196579 309.63177,12.196579 C309.628036,23.6654982 309.628036,35.1381556 309.63177,46.6070748 C309.684045,49.1640308 309.579495,51.9901399 307.854409,54.0461717 C305.894085,56.4386451 302.611943,57.0778841 299.673324,57.1451724 C293.78115,57.1563871 287.888976,57.1451724 282.000536,57.1489106 C281.996802,54.2667279 282.000536,51.3845451 281.996802,48.5061006 C286.529818,48.4986241 291.0591,48.5061006 295.592116,48.5023623 C296.361309,48.5883419 297.35454,48.1808737 297.376944,47.2911727 C297.455357,45.5753207 297.358274,43.8557305 297.418018,42.1436167 C296.667493,44.0089983 294.938674,45.377194 292.941011,45.6313943 C290.480337,45.9155005 287.922581,45.8968093 285.536587,45.1715908 C283.609868,44.580949 281.907187,43.1791091 281.134259,41.2912981 C280.301588,39.4296547 280.31279,37.343717 280.31279,35.3437588 C280.33146,30.495262 280.290386,25.6467652 280.335194,20.7982684 C280.335194,18.2001918 281.167865,15.3740827 283.397033,13.833928 M293.150112,21.4300309 C292.448129,21.8150696 292.548946,22.7272 292.537744,23.4038214 C292.586285,27.5196233 292.481735,31.6391633 292.590019,35.7512269 C292.95968,37.0558726 294.587683,36.7680281 295.618253,36.7717664 C296.60775,36.8465312 297.429219,35.9643066 297.388146,34.9961025 C297.414284,31.0036626 297.406816,27.0112227 297.39188,23.0187827 C297.425485,22.1739406 296.857925,21.2767631 295.965511,21.2057365 C295.032023,21.1646159 294.012655,21.0001333 293.150112,21.4300309 M227.854518,36.1213127 C231.961864,36.1213127 236.069209,36.1213127 240.180289,36.1213127 C240.176555,40.0464643 240.176555,43.9716159 240.180289,47.8967675 C236.072943,47.9005058 231.965598,47.8930293 227.858252,47.9005058 C227.850784,43.9716159 227.858252,40.0464643 227.854518,36.1213127" id="smashgg-white" transform="translate(175.320690, 28.578522) rotate(-360.000000) translate(-175.320690, -28.578522) "/>
            </g>
        </g>
    </g>
</svg>