<svg width="269" height="58" viewBox="0 0 7130 1625" fill="none" xmlns="http://www.w3.org/2000/svg">
<path d="M3375 250C3236.93 250 3125 361.929 3125 500V1218.75C3125 1236.01 3138.99 1250 3156.25 1250H3343.75C3361.01 1250 3375 1236.01 3375 1218.75V531.25C3375 513.991 3388.99 500 3406.25 500H3843.75C3861.01 500 3875 486.009 3875 468.75V281.25C3875 263.991 3861.01 250 3843.75 250H3375Z" fill="black"/>
<path d="M2250 250C2111.93 250 2000 361.929 2000 500V1000C2000 1138.07 2111.93 1250 2250 1250H2593.75C2611.01 1250 2625 1236.01 2625 1218.75V1031.25C2625 1013.99 2611.01 1000 2593.75 1000H2281.25C2263.99 1000 2250 986.009 2250 968.75V531.25C2250 513.991 2263.99 500 2281.25 500H2718.75C2736.01 500 2750 513.991 2750 531.25V1218.75C2750 1236.01 2763.99 1250 2781.25 1250H2968.75C2986.01 1250 3000 1236.01 3000 1218.75V500C3000 361.929 2888.07 250 2750 250H2250Z" fill="black"/>
<path d="M5000 500C5000 361.929 5111.93 250 5250 250H5750C5888.07 250 6000 361.929 6000 500V1375C6000 1513.07 5888.07 1625 5750 1625H5156.25C5138.99 1625 5125 1611.01 5125 1593.75V1406.25C5125 1388.99 5138.99 1375 5156.25 1375H5718.75C5736.01 1375 5750 1361.01 5750 1343.75V531.25C5750 513.991 5736.01 500 5718.75 500H5281.25C5263.99 500 5250 513.991 5250 531.25V968.75C5250 986.009 5263.99 1000 5281.25 1000H5593.75C5611.01 1000 5625 1013.99 5625 1031.25V1218.75C5625 1236.01 5611.01 1250 5593.75 1250H5250C5111.93 1250 5000 1138.07 5000 1000V500Z" fill="black"/>
<path d="M6125 500C6125 361.929 6236.93 250 6375 250H6875C7013.07 250 7125 361.929 7125 500V1375C7125 1513.07 7013.07 1625 6875 1625H6281.25C6263.99 1625 6250 1611.01 6250 1593.75V1406.25C6250 1388.99 6263.99 1375 6281.25 1375H6843.75C6861.01 1375 6875 1361.01 6875 1343.75V531.25C6875 513.991 6861.01 500 6843.75 500H6406.25C6388.99 500 6375 513.991 6375 531.25V968.75C6375 986.009 6388.99 1000 6406.25 1000H6718.75C6736.01 1000 6750 1013.99 6750 1031.25V1218.75C6750 1236.01 6736.01 1250 6718.75 1250H6375C6236.93 1250 6125 1138.07 6125 1000V500Z" fill="black"/>
<path d="M1375 31.25C1375 13.9911 1361.01 0 1343.75 0H1156.25C1138.99 0 1125 13.9911 1125 31.25V1000C1125 1138.07 1236.93 1250 1375 1250H1843.75C1861.01 1250 1875 1236.01 1875 1218.75V1031.25C1875 1013.99 1861.01 1000 1843.75 1000H1406.25C1388.99 1000 1375 986.009 1375 968.75V531.25C1375 513.991 1388.99 500 1406.25 500H1843.75C1861.01 500 1875 486.009 1875 468.75V281.25C1875 263.991 1861.01 250 1843.75 250H1406.25C1388.99 250 1375 236.009 1375 218.75V31.25Z" fill="black"/>
<path d="M4250 31.25C4250 13.9911 4236.01 0 4218.75 0H4031.25C4013.99 0 4000 13.9911 4000 31.25V1000C4000 1138.07 4111.93 1250 4250 1250H4468.75C4486.01 1250 4500 1236.01 4500 1218.75V1031.25C4500 1013.99 4486.01 1000 4468.75 1000H4281.25C4263.99 1000 4250 986.009 4250 968.75V531.25C4250 513.991 4263.99 500 4281.25 500H4718.75C4736.01 500 4750 486.009 4750 468.75V281.25C4750 263.991 4736.01 250 4718.75 250H4281.25C4263.99 250 4250 236.009 4250 218.75V31.25Z" fill="black"/>
<path d="M750 1250C888.071 1250 1000 1138.07 1000 1000V781.25C1000 763.991 986.009 750 968.75 750H781.25C763.991 750 750 763.991 750 781.25V968.75C750 986.009 736.009 1000 718.75 1000H31.25C13.9911 1000 0 1013.99 0 1031.25V1218.75C0 1236.01 13.9911 1250 31.25 1250H750Z" fill="black"/>
<path d="M250 250C111.929 250 3.3457e-06 361.929 3.3457e-06 500V718.75C3.3457e-06 736.009 13.9911 750 31.25 750H218.75C236.009 750 250 736.009 250 718.75V531.25C250 513.991 263.991 500 281.25 500H968.75C986.009 500 1000 486.009 1000 468.75V281.25C1000 263.991 986.009 250 968.75 250H250Z" fill="black"/>
<path d="M4625 1031.25C4625 1013.99 4638.99 1000 4656.25 1000H4843.75C4861.01 1000 4875 1013.99 4875 1031.25V1218.75C4875 1236.01 4861.01 1250 4843.75 1250H4656.25C4638.99 1250 4625 1236.01 4625 1218.75V1031.25Z" fill="black"/>
</svg>
